<svg version="1.1" xmlns="http://www.w3.org/2000/svg" xmlns:xlink="http://www.w3.org/1999/xlink" width="339" height="339" viewBox="0,0,339,339"><g transform="translate(-70.5,-10.5)"><g data-paper-data="{&quot;isPaintingLayer&quot;:true}" fill="none" fill-rule="nonzero" stroke="#000000" stroke-width="2" stroke-linejoin="miter" stroke-miterlimit="10" stroke-dasharray="" stroke-dashoffset="0" style="mix-blend-mode: normal"><path d="M71.5,348.5v-337h337v337z" stroke-linecap="butt"/><path d="M348.5,46.5c0,-8.83656 7.16345,-16 16,-16c8.83655,0 16,7.16344 16,16c0,8.83656 -7.16345,16 -16,16c-8.83655,0 -16,-7.16344 -16,-16z" stroke-linecap="butt"/><path d="M240.1002,324.43765l47.59102,-47.59102l-47.59101,-87.31917l-48.00486,87.31918z" stroke-linecap="round"/><path d="M239.89981,35.56235l-47.59101,47.59102l47.59102,87.31917l48.00485,-87.31917z" stroke-linecap="round"/><path d="M115.08419,252.51403l65.0395,17.31107l51.68349,-84.96093l-99.61943,2.25231z" stroke-linecap="round"/><path d="M364.91581,107.48597l-65.0395,-17.31107l-51.68349,84.96093l99.61943,-2.25231z" stroke-linecap="round"/><path d="M364.96007,252.43774l-17.26056,-65.05292l-99.40986,-2.68758l51.40969,85.35894z" stroke-linecap="round"/><path d="M115.03993,107.56226l17.26056,65.05292l99.40986,2.68758l-51.40969,-85.35894z" stroke-linecap="round"/><path d="M93.41644,326.58356v-43.85965h43.85965v43.85965z" stroke-linecap="butt"/></g></g></svg>